<?xml version="1.0" standalone="no"?> <!DOCTYPE svg PUBLIC "-//W3C//DTD SVG 1.0//EN" "http://www.w3.org/TR/2001/REC-SVG-20010904/DTD/svg10.dtd" > <svg xmlns="http://www.w3.org/2000/svg" width="100%" height="100%">
<defs >
<font id="mrseavesot-bold" horiz-adv-x="407" ><font-face
    font-family="Mrs Eaves OT"
    units-per-em="1000"
    panose-1="0 0 0 0 0 0 0 0 0 0"
    ascent="617"
    descent="-250"
    alphabetic="0" />
<missing-glyph horiz-adv-x="500" />
<glyph unicode=" " glyph-name="space" horiz-adv-x="233" />
<glyph unicode="!" glyph-name="exclam" horiz-adv-x="329" d="M90 540Q90 571 112 594T165 617T219 594T243 540Q243 503 230 468T201 367T182 193H148Q145 300 130 366T103 468T90 540ZM223 49Q223 26 206 9T165 -8T125 8T109 49T125 90T165 107T206 90T223 49Z" />
<glyph unicode="&quot;" glyph-name="quotedbl" horiz-adv-x="413" d="M57 556Q57 581 74 599T115 617Q140 617 158 599T176 556Q176 548 154 481T126 335H105Q99 414 78 481T57 556ZM237 556Q237 581 254 599T295 617Q320 617 338 599T356 556Q356 548 334 481T306
335H285Q279 414 258 481T237 556Z" />
<glyph unicode="#" glyph-name="numbersign" horiz-adv-x="435" d="M311 323H381L368 253H298L280 139H223L243 253H153L134 139H78L97 253H27L39 323H108L124 417H55L68 486H137L156 600H213L193 486H283L302 600H358L339 486H409L397 417H327L311 323ZM165 323H254L270
417H181L165 323Z" />
<glyph unicode="$" glyph-name="dollar" horiz-adv-x="498" d="M260 589Q305 583 339 563T386 521T396 479T370 453Q354 448 342 458T322 484T298 519T260 545V360L330 324Q380 298 406 259T433 179Q433 105 384 59T260 8V-83H208V10Q170 15 137 30T83 63T51 101T41
136T57 158Q76 166 90 155T115 123T149 81T208 52V268L160 293Q113 317 83 357T52 448Q52 507 96 547T208 591V683H260V589ZM260 49Q295 54 316 76T338 133Q338 196 260 241V49ZM208 548Q182 542 165 523T147 476Q147 424 208 388V548Z" />
<glyph unicode="%" glyph-name="percent" horiz-adv-x="763" d="M372 532T372 473T324 372T208 330Q140 330 92 372T43 473T91 574T208 617Q275 617 323 575ZM273 432T273 473T256 546T208 578T160 546T142 473Q142 433 159 401T208 368T256 400ZM587 598L218
-18L178 3L548 620L587 598ZM719 187T719 128T671 27T555 -16T440 26T391 128T439 229T555 271T670 229ZM621 128Q621 168 604 200T555 233T507 201T489 128Q489 87 506 55T555 23T603 55T621 128Z" />
<glyph unicode="&amp;" glyph-name="ampersand" horiz-adv-x="657" d="M249 368Q298 399 324 429T351 502Q351 534 334 552T289 570Q258 570 239 545T219 489Q219 424 249 368ZM374 67Q249 199 203 261Q168 213 168 150Q168 99 202 65T285 30Q332 30 374 67ZM405
38Q346 -17 252 -17Q165 -17 106 29T46 158Q46 210 76 246T163 318Q105 404 105 473Q105 537 158 577T289 617Q356 617 402 587T448 502Q448 471 430 444T394 404T333 365T275 328Q305 284 430 147Q440 166 448 193Q462 238 445 255T366 272V301H600V272Q547 272
527 253T483 168Q476 145 461 113Q513 58 558 58Q588 58 623 93L643 74Q581 -17 517 -17Q469 -17 405 38Z" />
<glyph unicode="&apos;" glyph-name="quotesingle" horiz-adv-x="233" d="M57 556Q57 581 74 599T115 617Q140 617 158 599T176 556Q176 548 154 481T126 335H105Q99 414 78 481T57 556Z" />
<glyph unicode="(" glyph-name="parenleft" horiz-adv-x="358" d="M334 -86L308 -111Q67 86 67 295Q67 503 307 701L334 676Q178 501 178 295Q178 90 334 -86Z" />
<glyph unicode=")" glyph-name="parenright" horiz-adv-x="358" d="M292 295Q292 86 51 -111L24 -86Q181 91 181 295T24 676L52 701Q292 503 292 295Z" />
<glyph unicode="*" glyph-name="asterisk" horiz-adv-x="425" d="M181 429Q154 439 118 441T71 450Q52 461 46 482T50 523Q61 542 83 548T124 543Q136 536 156 505T198 455Q193 483 177 515T160 562Q160 584 175 600T213 617T251 601T267 562Q267 548 250 516T228
457Q249 475 269 505T302 541Q320 552 342 547T375 523Q386 504 380 482T355 448Q344 442 308 441T243 429Q270 420 305 418T354 408Q373 397 379 376T375 336Q364 317 342 311T301 316Q290 323 270 353T228 402Q233 375 249 343T265 297Q265 275 250 259T213 242Q191
242 175 258T158 297Q158 310 175 342T198 402Q176 384 156 354T123 318Q105 307 83 312T50 336Q39 354 45 377T70 410Q81 416 117 417T181 429Z" />
<glyph unicode="+" glyph-name="plus" horiz-adv-x="458" d="M268 260H408V183H268V42H190V183H50V260H190V400H268V260Z" />
<glyph unicode="," glyph-name="comma" horiz-adv-x="313" d="M108 -139L88 -119Q146 -59 153 -8H148Q122 -8 104 11T86 56T104 101T148 120Q177 120 199 99T221 42Q221 -5 192 -55T108 -139Z" />
<glyph unicode="-" glyph-name="hyphen" horiz-adv-x="458" d="M375 166H83V243H375V166Z" />
<glyph unicode="." glyph-name="period" horiz-adv-x="313" d="M122 120T149 120T194 102T213 56T195 11T149 -8T104 10T86 56T104 101Z" />
<glyph unicode="/" glyph-name="slash" horiz-adv-x="348" d="M334 601L63 -18L14 -1L285 620L334 601Z" />
<glyph unicode="0" glyph-name="zero" horiz-adv-x="592" d="M200 450T296 450T460 382T529 217Q529 120 461 52T296 -17T132 51T63 217Q63 313 131 381ZM355 366T296 366T195 322T152 217Q152 155 194 112T296 68T397 111T440 217Q440 278 398 322Z" />
<glyph unicode="1" glyph-name="one" horiz-adv-x="404" d="M354 0H50V29Q112 29 129 50T146 146V288Q146 363 129 383T50 404V433H354V404Q292 404 275 384T258 288V146Q258 71 275 50T354 29V0Z" />
<glyph unicode="2" glyph-name="two" horiz-adv-x="553" d="M348 163L231 92H468L443 -79H422Q422 -29 401 -15T305 0H74V24L262 178Q330 235 330 303Q330 345 306 372T238 399Q184 399 162 360T170 258L123 227Q65 262 63 315T112 409T248 450Q346 450 404 412T463
316Q463 266 431 230T348 163Z" />
<glyph unicode="3" glyph-name="three" horiz-adv-x="525" d="M258 115Q252 110 244 102T231 87T218 75T204 69T189 75Q182 81 181 87T184 102T194 114T208 129L263 187Q288 212 301 243T315 299Q315 345 293 372T233 399Q184 399 162 359T170 258L123 227Q65
262 61 315T106 409T239 450Q328 450 387 414T447 316Q447 232 341 169L292 141Q366 131 415 85T464 -20Q464 -96 401 -141T249 -187Q193 -187 148 -166T83 -120T64 -71T90 -43Q104 -40 116 -49T138 -73T159 -103T192 -130T241 -141Q282 -141 304 -107T326 -20Q326
76 258 115Z" />
<glyph unicode="4" glyph-name="four" horiz-adv-x="565" d="M358 492V87H361Q425 87 445 102T477 163L482 183H511L503 42H358V-24Q358 -99 375 -120T454 -141V-170H150V-141Q212 -141 229 -120T246 -24V42H36V69L332 492H358ZM246 87V290L103 87H246Z" />
<glyph unicode="5" glyph-name="five" horiz-adv-x="501" d="M133 186Q146 204 176 217T237 230Q323 230 380 170T438 22Q438 -66 379 -126T228 -187Q157 -187 111 -148T65 -72Q65 -43 93 -43Q112 -43 123 -58T139 -92T165 -125T220 -141Q260 -141 286 -95T313
22Q313 92 287 136T220 180Q185 180 164 162T124 90H79L110 433H288Q352 433 372 448T403 509H426L402 321H148L133 186Z" />
<glyph unicode="6" glyph-name="six" horiz-adv-x="533" d="M179 278Q179 32 273 32Q351 32 351 172Q351 310 265 310Q200 310 179 278ZM179 332Q210 358 265 358Q349 358 412 303T475 171T416 39T273 -17Q240 -17 208 -5T141 36T85 124T63 266Q63 354 89 433T172
566T301 620Q338 620 372 608T424 578T448 543T435 514Q423 504 409 512T385 533T354 558T302 571Q187 571 179 332Z" />
<glyph unicode="7" glyph-name="seven" horiz-adv-x="479" d="M435 442V414L212 -148Q195 -188 164 -188Q141 -188 130 -166T134 -110L353 329H203Q158 329 135 321T103 298T87 253L82 233H61L103 521H123Q123 471 144 457T240 442H435Z" />
<glyph unicode="8" glyph-name="eight" horiz-adv-x="545" d="M299 378Q347 426 347 496Q347 530 325 550T273 570Q244 570 226 551T207 506Q207 453 299 378ZM239 293Q168 234 168 146Q168 100 196 65T273 30Q316 30 342 59T368 129Q368 169 334 207T239 293ZM336
349Q365 326 373 320T405 294T437 262T459 232T478 195T483 158Q483 84 420 34T273 -17Q188 -17 126 32T63 154Q63 186 73 211T108 257T150 289T204 320Q149 364 121 398T93 473Q93 534 145 575T268 617Q337 617 390 579T444 489Q444 443 416 412T336 349Z" />
<glyph unicode="9" glyph-name="nine" horiz-adv-x="533" d="M471 168Q471 80 445 1T362 -133T233 -187Q196 -187 162 -175T110 -145T86 -110T98 -81Q113 -74 120 -76T139 -89T160 -110T189 -129T232 -138Q346 -138 354 102Q322 75 268 75Q184 75 121 130T58 263T117
395T260 450Q293 450 326 438T393 397T449 309T471 168ZM354 156Q354 402 260 402Q183 402 183 262Q183 123 268 123Q332 123 354 156Z" />
<glyph unicode=":" glyph-name="colon" horiz-adv-x="285" d="M199 49Q199 26 182 9T142 -8Q118 -8 102 8T86 49T102 90T142 107Q165 107 182 90T199 49ZM199 238Q199 215 182 198T142 181Q118 181 102 197T86 238T102 279T142 296Q165 296 182 279T199 238Z" />
<glyph unicode=";" glyph-name="semicolon" horiz-adv-x="278" d="M98 -128L81 -110Q132 -56 139 -10H134Q111 -10 95 7T78 48T94 88T134 106Q160 106 180 87T200 35Q200 -7 174 -52T98 -128ZM193 238Q193 215 176 198T135 181T95 197T79 238T95 279T135 296T176
279T193 238Z" />
<glyph unicode="&lt;" glyph-name="less" horiz-adv-x="483" d="M67 223L404 441L427 410L228 223L427 38L404 6L67 223Z" />
<glyph unicode="=" glyph-name="equal" horiz-adv-x="458" d="M375 253H83V331H375V253ZM375 112H83V189H375V112Z" />
<glyph unicode="&gt;" glyph-name="greater" horiz-adv-x="483" d="M417 223L79 6L57 38L255 223L57 410L79 441L417 223Z" />
<glyph unicode="?" glyph-name="question" horiz-adv-x="513" d="M392 468Q392 511 350 544T243 577Q202 577 177 562T152 532Q152 509 186 509Q204 509 217 497T230 467Q230 442 209 429T166 415Q134 415 107 436T80 501Q80 553 132 585T243 617Q344 617 405
561T467 439Q467 349 405 295T243 229V175H198V349Q283 349 337 381T392 468ZM278 49Q278 26 262 9T221 -8T181 8T165 49T181 90T221 107T261 90T278 49Z" />
<glyph unicode="@" glyph-name="at" horiz-adv-x="708" d="M674 239Q674 138 612 63T482 -12Q436 -12 413 28Q394 9 368 -3T322 -15Q257 -15 226 40T209 178Q223 255 279 310T400 365Q434 365 465 349H532L484 82Q475 38 503 38Q543 38 583 94T623 238Q623 333
559 390T406 448Q290 448 209 361T127 158Q127 41 195 -32T371 -106Q473 -106 581 -38L600 -66Q484 -153 363 -153Q227 -153 133 -65T38 154Q38 299 142 402T392 506Q514 506 594 432T674 239ZM444 304Q425 321 398 321Q361 321 334 277T295 173Q273 38 338 38Q362
38 383 61T412 118L444 304Z" />
<glyph unicode="A" glyph-name="A" horiz-adv-x="625" d="M170 200L129 105Q110 64 126 47T204 29V0H-38V29Q14 29 38 46T85 117L302 617H323L541 117Q564 64 585 47T663 29V0H335V29Q399 29 414 47T410 105L368 200H170ZM349 245L269 428L190 245H349Z" />
<glyph unicode="B" glyph-name="B" horiz-adv-x="657" d="M347 45Q409 45 441 80T474 170Q474 224 442 259T347 295H258V156Q258 85 275 65T354 45H347ZM258 555V340H314Q368 340 396 370T424 447Q424 493 396 524T314 555H258ZM484 326Q542 308 575 266T608 168Q608
96 553 48T406 0H38V29Q100 29 116 50T133 146V454Q133 529 117 550T38 571V600H378Q459 600 508 557T558 450Q558 369 484 326Z" />
<glyph unicode="C" glyph-name="C" horiz-adv-x="692" d="M618 11H590Q578 58 564 68Q482 -17 378 -17Q251 -17 161 76T71 300T161 524T378 617Q484 617 564 532Q579 544 590 589H618V369H589Q569 465 514 517T382 569Q333 569 297 545T242 481T215 395T206 300T214
205T242 120T297 55T382 31Q457 31 513 83T589 231H618V11Z" />
<glyph unicode="D" glyph-name="D" horiz-adv-x="772" d="M38 0V29Q100 29 116 50T133 146V454Q133 529 117 550T38 571V600H368Q534 600 617 516T701 300T618 84T368 0H38ZM258 555V158Q258 85 275 65T354 45H364Q411 45 446 61T503 102T537 162T554 230T559
300T555 370T537 438T503 498T447 539T364 555H258Z" />
<glyph unicode="E" glyph-name="E" horiz-adv-x="641" d="M38 0V29Q100 29 116 50T133 146V454Q133 529 117 550T38 571V600H553L561 459H532L527 479Q515 524 495 539T411 555H258V340H313Q388 340 408 357T429 436H458V199H429Q429 262 409 278T313 295H258V162Q258
87 275 66T354 45H444Q489 45 512 54T544 77T560 121L565 141H594L586 0H38Z" />
<glyph unicode="F" glyph-name="F" horiz-adv-x="594" d="M258 555V340H313Q388 340 408 357T429 436H458V199H429Q429 262 409 278T313 295H258V146Q258 71 275 50T354 29V0H38V29Q100 29 116 50T133 146V454Q133 529 117 550T38 571V600H569L578 459H548L543
479Q532 523 512 539T428 555H258Z" />
<glyph unicode="G" glyph-name="G" horiz-adv-x="725" d="M532 155Q532 188 511 203T438 219V248H733V219Q671 219 655 199T638 103V35Q577 35 502 9T378 -17Q251 -17 161 76T71 300T161 524T378 617Q484 617 564 532Q579 544 590 589H618V369H589Q569 465 514
517T382 569Q333 569 297 545T242 481T215 395T206 300T214 205T242 120T297 55T382 31Q447 31 489 61T532 155Z" />
<glyph unicode="H" glyph-name="H" horiz-adv-x="823" d="M258 296V146Q258 71 275 50T354 29V0H38V29Q100 29 116 50T133 146V454Q133 529 117 550T38 571V600H354V571Q292 571 275 550T258 454V341H565V454Q565 530 549 550T469 571V600H786V571Q724 571 707
550T690 454V146Q690 71 707 50T786 29V0H469V29Q532 29 548 49T565 146V296H258Z" />
<glyph unicode="I" glyph-name="I" horiz-adv-x="392" d="M354 0H38V29Q100 29 116 50T133 146V454Q133 529 117 550T38 571V600H354V571Q292 571 275 550T258 454V146Q258 71 275 50T354 29V0Z" />
<glyph unicode="J" glyph-name="J" horiz-adv-x="383" d="M51 -178Q133 -178 133 -53V454Q133 529 117 550T38 571V600H354V571Q292 571 275 550T258 454V-4Q258 -111 201 -167T54 -223Q-12 -223 -60 -188T-108 -100Q-108 -82 -97 -70T-67 -58T-38 -70T-26 -100Q-26
-130 -7 -154T51 -178Z" />
<glyph unicode="K" glyph-name="K" horiz-adv-x="788" d="M387 375L664 88Q688 64 729 47T793 29V0H461V29Q502 29 513 43T498 88L301 302L258 267V146Q258 71 275 50T354 29V0H38V29Q100 29 116 50T133 146V454Q133 529 117 550T38 571V600H354V571Q292 571 275
550T258 454V320L468 489Q480 499 491 511T510 537T510 561T472 571V600H713V571Q673 571 640 560T589 535T529 489L387 375Z" />
<glyph unicode="L" glyph-name="L" horiz-adv-x="633" d="M133 454Q133 529 117 550T38 571V600H354V571Q292 571 275 550T258 454V162Q258 87 275 66T354 45H469Q514 45 537 54T569 77T585 121L590 141H619L611 0H38V29Q100 29 116 50T133 146V454Z" />
<glyph unicode="M" glyph-name="M" horiz-adv-x="850" d="M178 434V146Q178 71 195 50T274 29V0H38V29Q100 29 116 50T133 146V454Q133 529 117 550T38 571V600H238L431 167L618 600H813V571Q750 571 734 551T717 454V146Q717 70 733 50T813 29V0H501V29Q563 29
580 50T597 146V435L401 -17H379L178 434Z" />
<glyph unicode="N" glyph-name="N" horiz-adv-x="749" d="M572 202V454Q572 529 555 550T476 571V600H713V571Q650 571 634 551T617 454V-17H592L178 477V146Q178 71 195 50T274 29V0H38V29Q100 29 116 50T133 146V454Q133 529 117 550T38 571V600H238L572 202Z" />
<glyph unicode="O" glyph-name="O" horiz-adv-x="783" d="M725 431T725 300T627 76T392 -17Q254 -17 156 76T58 300T156 524T392 617Q529 617 627 524ZM591 235T591 300T572 424T505 526T392 569Q325 569 278 526T212 424T193 300T212 176T278 74T392 31Q458 31
505 74T571 176Z" />
<glyph unicode="P" glyph-name="P" horiz-adv-x="598" d="M373 600Q464 600 519 552T575 431T520 311T373 263H258V146Q258 71 275 50T354 29V0H38V29Q100 29 116 50T133 146V454Q133 529 117 550T38 571V600H373ZM313 308Q375 308 408 342T441 431T408 520T313
555H258V308H313Z" />
<glyph unicode="Q" glyph-name="Q" horiz-adv-x="808" d="M350 -13Q228 8 150 96T71 300Q71 431 169 524T404 617Q542 617 640 524T738 300Q738 176 651 88T438 -15Q408 -18 368 -34T302 -73Q361 -61 402 -65T485 -85T557 -118T624 -148T693 -162Q806 -162 858
-77L882 -87Q873 -114 865 -134T838 -182T799 -229T746 -261T674 -275Q628 -275 587 -257T515 -212T458 -160T403 -115T348 -96Q315 -96 294 -106T265 -128T248 -150T228 -163Q214 -165 204 -156T194 -131Q194 -107 240 -70T350 -13ZM404 569Q338 569 291 526T225
424T205 300T224 176T291 74T404 31Q471 31 518 74T584 176T603 300T584 424T518 526T404 569Z" />
<glyph unicode="R" glyph-name="R" horiz-adv-x="678" d="M398 263L495 157Q560 86 597 61T682 29V0H465L287 263H258V146Q258 71 275 50T354 29V0H38V29Q100 29 116 50T133 146V454Q133 529 117 550T38 571V600H373Q464 600 519 552T575 431Q575 365 527 318T398
263ZM313 308Q375 308 408 342T441 431T408 520T313 555H258V308H313Z" />
<glyph unicode="S" glyph-name="S" horiz-adv-x="507" d="M111 30Q88 11 82 -17H53V203H83Q97 125 150 77T267 28Q312 28 339 53T367 127Q367 155 347 182T293 228L198 278Q129 313 96 355T62 467Q62 529 113 573T236 617Q302 617 358 576Q381 595 387 622H415V402H386Q380
474 347 523T242 573Q209 573 185 551T161 493Q161 469 182 440T241 391L337 342Q395 312 430 267T466 165Q466 86 407 35T267 -17Q233 -17 202 -7T146 15T111 30Z" />
<glyph unicode="T" glyph-name="T" horiz-adv-x="642" d="M625 600L633 459H604L599 479Q592 509 584 523T552 546T483 555H383V146Q383 71 400 50T479 29V0H163V29Q225 29 241 50T258 146V555H158Q94 555 74 539T43 479L38 459H8L17 600H625Z" />
<glyph unicode="U" glyph-name="U" horiz-adv-x="733" d="M554 454Q554 530 538 550T458 571V600H703V571Q641 571 625 550T608 454V223Q608 110 540 47T367 -17T195 46T127 223V454Q127 529 110 550T31 571V600H348V571Q285 571 269 551T252 454V234Q252 141
295 93T407 45Q474 45 514 93T554 234V454Z" />
<glyph unicode="V" glyph-name="V" horiz-adv-x="625" d="M663 571Q611 571 587 554T540 483L323 -17H302L84 483Q61 536 40 553T-38 571V600H290V571Q226 571 211 553T215 495L355 170L496 495Q515 536 499 553T421 571V600H663V571Z" />
<glyph unicode="W" glyph-name="W" horiz-adv-x="778" d="M820 571Q760 571 739 554T701 483L539 -17H518L392 370L268 -17H247L85 483Q68 537 47 554T-34 571V600H282V571Q220 571 205 555T203 495L294 214L417 600H439L565 213L657 495Q670 536 655 553T587
571V600H820V571Z" />
<glyph unicode="X" glyph-name="X" horiz-adv-x="614" d="M359 348L504 117Q537 67 566 48T645 29V0H310V29Q367 29 378 46T364 105L277 244L163 105Q101 29 217 29V0H-29V29Q15 29 46 50T115 117L251 284L127 483Q95 532 65 551T-13 571V600H321V571Q267 571
255 554T267 495L334 388L422 495Q484 571 368 571V600H614V571Q565 571 538 553T470 483L359 348Z" />
<glyph unicode="Y" glyph-name="Y" horiz-adv-x="633" d="M665 571Q606 571 581 554T521 483L378 267V146Q378 71 394 50T473 29V0H161V29Q223 29 240 50T257 146V264L112 483Q77 536 49 553T-33 571V600H306V571Q201 571 253 495L365 326L477 495Q505 536 493
553T423 571V600H665V571Z" />
<glyph unicode="Z" glyph-name="Z" horiz-adv-x="592" d="M353 563H196Q151 563 128 554T96 532T80 488L75 468H54L63 600H506V578L193 37H386Q450 37 470 52T502 113L507 133H528L519 0H43V24L353 563Z" />
<glyph unicode="[" glyph-name="bracketleft" horiz-adv-x="375" d="M336 -88H117V678H336V638H232V-48H336V-88Z" />
<glyph unicode="\" glyph-name="backslash" horiz-adv-x="348" d="M14 601L63 620L334 -1L285 -18L14 601Z" />
<glyph unicode="]" glyph-name="bracketright" horiz-adv-x="375" d="M258 -88H39V-48H143V638H39V678H258V-88Z" />
<glyph unicode="^" glyph-name="asciicircum" horiz-adv-x="485" d="M460 296L437 280L243 438L48 280L25 296L243 617L460 296Z" />
<glyph unicode="_" glyph-name="underscore" horiz-adv-x="358" d="M359 -44H-1V0H359V-44Z" />
<glyph unicode="`" glyph-name="grave" horiz-adv-x="404" d="M270 490L263 481L84 557Q54 573 54 596Q54 610 64 621T91 633Q116 633 148 603L270 490Z" />
<glyph unicode="a" glyph-name="a" horiz-adv-x="441" d="M427 26Q378 -11 333 -11Q267 -11 257 47Q212 12 188 0T131 -13Q93 -13 64 10T35 71Q35 131 92 164T257 213V214Q257 267 241 288T192 309Q172 309 155 299T138 270Q138 250 127 239T98 227T70 238T58
270Q58 306 102 328T204 350Q287 350 324 318T362 214V79Q362 41 383 41Q394 41 413 53L427 26ZM257 88V173Q193 156 164 137T134 83Q134 43 173 43Q206 43 257 88Z" />
<glyph unicode="b" glyph-name="b" horiz-adv-x="502" d="M333 106T333 167T314 265T258 303Q232 303 212 278T192 215V118Q192 81 212 56T258 30Q295 30 314 68ZM79 -8V446Q79 521 65 542T0 563V592L192 617V321Q228 350 274 350Q357 350 406 298T456 167T406
36T274 -17Q202 -17 161 48L108 -8H79Z" />
<glyph unicode="c" glyph-name="c" horiz-adv-x="405" d="M239 310Q168 310 168 158Q168 98 195 65T270 32T371 78L388 49Q327 -17 239 -17Q156 -17 101 33T46 158Q46 244 100 297T231 350Q289 350 323 325T358 269Q358 254 348 241T314 227Q298 227 287 239T275
267Q275 310 239 310Z" />
<glyph unicode="d" glyph-name="d" horiz-adv-x="510" d="M310 321V446Q310 521 296 542T231 563V592L423 617V154Q423 79 437 59T502 38V8L327 -17Q324 -13 318 19Q280 -17 228 -17Q146 -17 96 36T46 167T95 297T228 350Q274 350 310 321ZM310 118V215Q310 253
290 278T243 303Q206 303 187 265T168 167T187 69T243 30Q270 30 290 55T310 118Z" />
<glyph unicode="e" glyph-name="e" horiz-adv-x="433" d="M173 229H306Q308 261 292 281T244 302Q188 302 173 229ZM166 185Q160 113 190 75T264 36Q335 36 383 78L400 49Q373 20 331 2T248 -17Q160 -17 103 36T46 167Q46 245 102 297T239 350Q317 350 359 296T383
185H166Z" />
<glyph unicode="f" glyph-name="f" horiz-adv-x="328" d="M401 529Q401 512 391 500T363 488Q343 488 332 502T316 532T302 562T273 576Q242 576 230 550T218 457V333H319V289H218V146Q218 71 232 50T298 29V0H27V29Q77 29 91 50T106 146V289H24V333H106V414Q106
517 146 567T275 617Q331 617 366 589T401 529Z" />
<glyph unicode="g" glyph-name="g" horiz-adv-x="425" d="M250 214Q250 257 236 283T194 309Q167 309 153 283T138 214T152 146T194 119Q222 119 236 145T250 214ZM113 45Q113 38 119 34T139 27T173 22T219 17Q306 7 347 -34T389 -124Q389 -188 334 -227T198 -267Q133
-267 87 -247T24 -199T22 -140T82 -85L101 -96Q71 -128 70 -154T88 -194T134 -216T188 -224Q241 -224 274 -206T307 -156Q307 -129 277 -114T158 -88Q33 -75 33 12Q33 39 57 63T120 99Q87 114 66 145T45 214Q45 270 89 310T194 350Q254 350 298 312Q310 328 332
339T372 350Q405 350 424 333T445 295T434 259T401 249Q388 252 382 261T374 279T367 296T350 303Q335 303 319 287Q343 258 343 214Q343 162 304 123T205 78Q190 77 177 76T152 73T132 68T118 59T113 45Z" />
<glyph unicode="h" glyph-name="h" horiz-adv-x="542" d="M88 446Q88 521 74 542T8 563V592L200 617V296Q246 350 318 350Q384 350 423 308T463 201V146Q463 71 477 50T542 29V0H311V29Q332 29 341 52T350 146V188Q350 241 337 267T288 294Q254 294 227 268T200
195V146Q200 71 214 50T279 29V0H8V29Q59 29 73 50T88 146V446Z" />
<glyph unicode="i" glyph-name="i" horiz-adv-x="323" d="M306 0H35V29Q85 29 99 50T114 146V179Q114 254 100 275T35 296V325L227 350V146Q227 71 241 50T306 29V0ZM234 544T234 518T215 473T170 453T126 472T108 518Q108 544 126 563T170 582T215 563Z" />
<glyph unicode="j" glyph-name="j" horiz-adv-x="281" d="M206 -78Q206 -176 166 -221T43 -267Q-22 -267 -62 -236T-103 -173Q-103 -138 -69 -138Q-51 -138 -41 -152T-28 -182T-11 -212T27 -226Q59 -226 76 -192T93 -70V179Q93 254 79 275T14 296V325L206 350V-78ZM213
544T213 518T194 473T149 453T105 472T87 518Q87 544 105 563T149 582T194 563Z" />
<glyph unicode="k" glyph-name="k" horiz-adv-x="465" d="M200 198L276 252Q302 270 292 287T245 304V333H454V304Q403 304 358 268L282 210L399 69Q433 29 475 29V0H333L200 159V138Q200 72 212 51T263 29V0H8V29Q59 29 73 50T88 146V446Q88 521 74 542T8 563V592L200
617V198Z" />
<glyph unicode="l" glyph-name="l" horiz-adv-x="304" d="M288 0H17V29Q67 29 81 50T96 146V446Q96 521 82 542T17 563V592L208 617V146Q208 71 222 50T288 29V0Z" />
<glyph unicode="m" glyph-name="m" horiz-adv-x="828" d="M488 195V146Q488 71 502 50T567 29V0H336V29Q357 29 366 52T375 146V188Q375 241 363 267T319 294Q285 294 256 268T227 195V146Q227 72 240 51T293 29V0H35V29Q85 29 99 50T114 146V179Q114 254 100
275T35 296V325L210 350Q221 329 224 293Q271 350 349 350Q437 350 472 276Q526 350 610 350Q676 350 712 309T748 201V146Q748 71 762 50T828 29V0H597V29Q618 29 627 52T636 146V188Q636 241 624 267T580 294Q546 294 517 268T488 195Z" />
<glyph unicode="n" glyph-name="n" horiz-adv-x="583" d="M224 293Q271 350 349 350Q416 350 460 308T504 201V146Q504 71 518 50T583 29V0H353V29Q374 29 383 52T392 146V188Q392 240 376 267T319 294Q285 294 256 268T227 195V146Q227 71 241 50T306 29V0H35V29Q85
29 99 50T114 146V179Q114 254 100 275T35 296V325L210 350Q221 329 224 293Z" />
<glyph unicode="o" glyph-name="o" horiz-adv-x="495" d="M449 243T449 167T390 37T248 -17T106 37T46 167T105 296T248 350T390 297ZM327 107T327 167T307 265T248 303T189 265T168 167T188 69T248 30T307 68Z" />
<glyph unicode="p" glyph-name="p" horiz-adv-x="502" d="M333 106T333 167T314 265T258 303Q232 303 212 278T192 215V118Q192 81 212 56T258 30Q295 30 314 68ZM192 -104Q192 -179 206 -200T271 -221V-250H0V-221Q50 -221 64 -200T79 -104V179Q79 254 65 275T0
296V325L175 350Q178 345 184 314Q222 350 274 350Q357 350 406 298T456 167T406 36T274 -17Q227 -17 192 13V-104Z" />
<glyph unicode="q" glyph-name="q" horiz-adv-x="502" d="M310 118V215Q310 253 290 278T243 303Q206 303 187 265T168 167T187 69T243 30Q270 30 290 55T310 118ZM423 -104Q423 -179 437 -200T502 -221V-250H231V-221Q281 -221 295 -200T310 -104V13Q275 -17
228 -17Q146 -17 96 36T46 167T95 297T228 350Q299 350 341 286L393 342H423V-104Z" />
<glyph unicode="r" glyph-name="r" horiz-adv-x="423" d="M422 268Q422 246 408 227T368 208Q351 208 342 218T330 241T317 263T288 274Q263 274 245 249T227 167V146Q227 71 241 50T306 29V0H35V29Q85 29 99 50T114 146V179Q114 254 100 275T35 296V325L210 350Q219
331 227 278Q243 308 273 329T333 350Q379 350 400 325T422 268Z" />
<glyph unicode="s" glyph-name="s" horiz-adv-x="383" d="M341 96Q341 40 301 12T205 -17Q183 -17 161 -10T126 3T102 13T87 10T82 -17H53V129H82Q82 93 119 59T203 25Q227 25 241 36T256 64T241 93T192 123L136 148Q61 183 61 250Q61 301 97 325T179 350Q203
350 227 345T262 335T280 333T287 350H316V234H287Q287 264 258 287T195 310Q174 310 160 301T146 276Q146 260 160 250T215 221L263 198Q300 181 320 154T341 96Z" />
<glyph unicode="t" glyph-name="t" horiz-adv-x="319" d="M81 289H28V322Q75 332 115 372T159 459H193V333H280V289H193V115Q193 43 238 43Q265 43 306 72L320 43Q296 20 260 3T198 -14Q143 -14 112 18T81 108V289Z" />
<glyph unicode="u" glyph-name="u" horiz-adv-x="548" d="M548 8L373 -17Q365 0 359 41Q313 -17 234 -17Q167 -17 123 26T79 133V188Q79 263 65 283T0 304V333H192V146Q192 94 208 67T264 39Q298 39 327 65T357 138V188Q357 262 343 283T278 304V333H469V154Q469
80 483 59T548 38V8Z" />
<glyph unicode="v" glyph-name="v" horiz-adv-x="384" d="M226 125L286 254Q299 281 292 292T257 304V333H405V304Q379 304 363 293T334 254L208 -18H180L46 254Q33 282 18 293T-21 304V333H198V304Q167 304 160 292T165 254L226 125Z" />
<glyph unicode="w" glyph-name="w" horiz-adv-x="543" d="M274 175L192 -18H172L54 254Q42 284 28 294T-14 304V333H197V304Q165 304 159 293T165 254L213 149L292 333H316L402 149L444 254Q456 282 450 293T417 304V333H565V304Q537 304 521 294T493 254L383
-18H363L274 175Z" />
<glyph unicode="x" glyph-name="x" horiz-adv-x="415" d="M182 118L145 79Q96 29 162 29V0H3V29Q45 29 91 79L158 149L77 254Q54 283 35 293T-11 304V333H224V304Q192 304 187 294T203 254L227 223L257 254Q304 304 244 304V333H407V304Q357 304 311 254L252 192L338
79Q362 49 382 39T434 29V0H187V29Q252 29 212 79L182 118Z" />
<glyph unicode="y" glyph-name="y" horiz-adv-x="379" d="M128 -233Q113 -270 91 -270Q77 -270 64 -262T51 -233Q51 -217 62 -206T94 -174T127 -120L170 -14L50 254Q28 304 -17 304V333H203V304Q171 304 164 293T169 254L228 124L282 254Q293 281 287 292T253
304V333H401V304Q351 304 330 254L128 -233Z" />
<glyph unicode="z" glyph-name="z" horiz-adv-x="375" d="M326 333V317L177 40H196Q260 40 281 53T311 99L316 119H337L329 0H39V17L188 293H183Q119 293 98 280T68 234L63 214H42L49 333H326Z" />
<glyph unicode="{" glyph-name="braceleft" horiz-adv-x="375" d="M42 304Q65 312 75 316T100 332T122 361T133 406T138 478Q138 528 154 565T197 624T257 666T323 703L346 673Q287 634 270 599T252 480Q252 438 246 407T230 358T203 327T170 308T129 296Q154
290 169 284T202 266T229 235T245 185T252 112Q252 28 269 -7T346 -82L323 -111Q290 -95 257 -75T198 -33T155 26T138 114Q138 156 133 185T122 231T101 259T75 276T42 288V304Z" />
<glyph unicode="|" glyph-name="bar" horiz-adv-x="274" d="M111 686H163V-96H111V686Z" />
<glyph unicode="}" glyph-name="braceright" horiz-adv-x="375" d="M333 288Q305 278 293 272T265 248T244 198T238 114Q238 64 221 27T178 -32T118 -74T52 -111L29 -82Q88 -42 105 -7T123 112Q123 154 129 185T145 234T172 265T205 284T246 296Q221 302 206 308T173
326T146 357T130 407T123 480Q123 564 106 599T29 673L52 703Q85 687 118 667T177 625T221 566T238 478Q238 426 243 394T264 345T292 321T333 304V288Z" />
<glyph unicode="~" glyph-name="asciitilde" horiz-adv-x="423" d="M298 222Q342 222 356 276H377Q377 201 353 162T285 123Q260 123 200 155T121 188Q103 188 87 173T65 134H44Q44 204 67 244T130 285Q157 285 216 254T298 222Z" />
</font>
</defs>
</svg>
