<?xml version="1.0" standalone="no"?> <!DOCTYPE svg PUBLIC "-//W3C//DTD SVG 1.0//EN" "http://www.w3.org/TR/2001/REC-SVG-20010904/DTD/svg10.dtd" > <svg xmlns="http://www.w3.org/2000/svg" width="100%" height="100%">
<defs >
<font id="mrseavesot-italic" horiz-adv-x="297" ><font-face
    font-family="Mrs Eaves OT"
    units-per-em="1000"
    panose-1="0 0 0 0 0 0 0 0 0 0"
    ascent="617"
    descent="-250"
    alphabetic="0" />
<missing-glyph horiz-adv-x="500" />
<glyph unicode=" " glyph-name="space" horiz-adv-x="175" />
<glyph unicode="!" glyph-name="exclam" horiz-adv-x="300" d="M163 40Q160 21 144 7T107 -8Q88 -8 77 6T68 40Q72 60 88 74T124 88Q144 88 155 74T163 40ZM162 568Q166 588 182 602T217 617Q237 617 249 602T257 568Q255 555 221 440T153 160H120Q144 327 152
442T162 568Z" />
<glyph unicode="&quot;" glyph-name="quotedbl" horiz-adv-x="326" d="M113 568Q116 588 130 602T162 617Q179 617 190 602T198 568Q197 562 173 509T134 393H119Q125 455 119 508T113 568ZM263 568Q266 588 280 602T312 617Q329 617 340 602T348 568Q347 562
323 509T284 393H269Q275 455 269 508T263 568Z" />
<glyph unicode="#" glyph-name="numbersign" horiz-adv-x="435" d="M331 314H409L391 262H313L271 139H231L273 262H167L125 139H85L128 262H49L68 314H145L184 425H107L125 478H203L245 600H285L243 478H348L391 600H431L388 478H467L448 425H370L331 314ZM185
314H291L330 425H224L185 314Z" />
<glyph unicode="$" glyph-name="dollar" horiz-adv-x="498" d="M329 582Q384 576 416 551T446 501Q444 491 435 483T417 475T400 484T384 504T361 527T323 542L287 340L351 303Q388 282 408 248T423 179Q411 109 355 64T229 16L212 -83H176L194 18Q127 24 87 55T52
115Q53 125 62 133T81 141Q89 141 99 130T118 104T149 75T201 56L242 289L199 315Q157 340 136 371T123 448Q132 503 181 542T293 583L312 683H348L329 582ZM236 54Q282 56 317 84T361 157Q366 188 343 218T274 271L236 54ZM287 543Q250 540 219 517T182 458Q176
429 192 408T254 358L287 543Z" />
<glyph unicode="%" glyph-name="percent" horiz-adv-x="763" d="M702 128Q692 69 641 27T528 -16Q466 -16 430 26T403 128Q414 187 465 229T578 271T675 229T702 128ZM672 600L179 -18L147 0L639 618L672 600ZM425 532T415 473T354 372T241 330T143 372T117 473T179
574T291 617Q353 617 389 575ZM642 128Q651 178 634 210T573 242T501 210T463 128Q455 77 472 45T533 13T605 45T642 128ZM355 473Q365 524 348 556T286 588T214 556T177 473Q168 423 185 391T246 359T318 391T355 473Z" />
<glyph unicode="&amp;" glyph-name="ampersand" horiz-adv-x="567" d="M328 75Q241 212 210 283Q141 221 127 142Q119 97 145 60T228 22Q283 22 328 75ZM362 129Q370 145 413 243Q444 307 501 307Q540 307 557 285T571 241Q565 208 538 208Q524 208 518 218T511
241T506 264T487 275Q469 275 455 259T421 198Q416 187 402 154T379 103Q381 100 384 94T389 85Q428 23 468 23Q493 23 529 58L541 41Q496 -17 443 -17Q391 -17 343 51Q284 -17 203 -17Q133 -17 91 28T63 158Q73 208 106 245T195 320Q164 413 174 473Q185 537 235
577T341 617Q400 617 429 582T449 495Q439 439 389 402L372 433Q394 462 399 493Q406 529 388 551T338 574Q300 574 274 549T242 489Q229 413 256 338T362 129Z" />
<glyph unicode="&apos;" glyph-name="quotesingle" horiz-adv-x="176" d="M113 568Q116 588 130 602T162 617Q179 617 190 602T198 568Q197 562 173 509T134 393H119Q125 455 119 508T113 568Z" />
<glyph unicode="(" glyph-name="parenleft" horiz-adv-x="358" d="M289 -90L263 -111Q71 74 110 295T405 701L425 680Q386 644 361 618T292 539T220 424T179 295Q173 261 172 227T176 163T187 107T205 54T225 9T248 -31T269 -63T289 -90Z" />
<glyph unicode=")" glyph-name="parenright" horiz-adv-x="358" d="M302 295Q263 72 7 -111L-13 -90Q26 -54 51 -28T120 51T192 166T233 295Q239 329 240 363T236 427T226 483T208 536T187 580T164 621T143 653T123 680L150 701Q341 517 302 295Z" />
<glyph unicode="*" glyph-name="asterisk" horiz-adv-x="407" d="M243 430Q210 449 164 459T113 472Q102 480 101 494T109 523T135 541T164 538Q166 536 192 500T250 443Q255 482 249 527T243 578Q246 593 259 605T287 617Q303 617 312 605T318 578Q317 572 295
527T263 443Q301 463 339 498T383 537Q396 545 411 541T433 523Q438 509 431 494T409 471Q403 468 354 459T266 430Q298 412 343 402T394 389Q406 381 407 366T399 337Q388 323 372 319T344 323Q341 325 315 361T258 418Q253 378 260 333T267 282Q264 267 251 255T221
243Q206 243 197 255T191 282Q192 288 214 333T245 418Q208 397 170 362T126 323Q112 315 97 319T76 337Q70 350 77 365T98 388Q104 391 153 401T243 430Z" />
<glyph unicode="+" glyph-name="plus" horiz-adv-x="458" d="M270 252H428L420 208H263L235 50H191L218 208H62L69 252H226L253 408H298L270 252Z" />
<glyph unicode="," glyph-name="comma" horiz-adv-x="250" d="M90 -8H82Q63 -8 52 6T43 40Q47 60 63 74T99 88Q121 88 134 72T142 25Q135 -12 104 -55T23 -126L14 -114Q74 -61 90 -8Z" />
<glyph unicode="-" glyph-name="hyphen" horiz-adv-x="458" d="M383 183H91L98 227H390L383 183Z" />
<glyph unicode="." glyph-name="period" horiz-adv-x="250" d="M138 40Q135 21 119 7T82 -8Q63 -8 52 6T43 40Q47 60 63 74T99 88Q119 88 130 74T138 40Z" />
<glyph unicode="/" glyph-name="slash" horiz-adv-x="348" d="M414 600L22 -18L-11 0L382 618L414 600Z" />
<glyph unicode="0" glyph-name="zero" horiz-adv-x="528" d="M479 217Q463 120 391 52T236 -17T106 51T76 217Q92 313 163 381T318 450T448 382T479 217ZM397 131T412 217T402 358T312 413Q246 413 203 359T143 217Q128 130 152 76T243 21Q308 21 352 76Z" />
<glyph unicode="1" glyph-name="one" horiz-adv-x="354" d="M263 0H42L45 21Q96 21 114 42T145 138L173 291Q185 363 169 382T95 399L99 420L263 453L208 138Q195 63 205 42T266 21L263 0Z" />
<glyph unicode="2" glyph-name="two" horiz-adv-x="477" d="M47 0L51 24L267 188Q343 246 353 304Q362 355 334 381T261 408Q225 408 193 383T153 320Q148 288 163 258L130 227Q81 265 92 320Q101 372 151 411T276 450Q345 450 389 413T423 316Q416 280 389 245T338
193L315 176L156 58H389L340 -79H319Q328 -29 310 -15T217 0H47Z" />
<glyph unicode="3" glyph-name="three" horiz-adv-x="470" d="M232 115Q225 109 215 96T195 76T177 68T162 74T158 90Q161 108 182 123L267 188Q342 246 353 304Q361 354 336 381T269 408Q227 408 194 382T153 318Q147 291 163 258L130 227Q81 265 92 320Q101
372 151 411T276 450Q345 450 389 413T423 316Q418 288 400 261T363 216T329 187L314 176L268 141Q330 126 360 82T379 -20Q367 -88 305 -137T172 -187Q100 -187 60 -149T24 -76Q29 -51 52 -51Q63 -51 69 -66T81 -100T110 -133T176 -149Q221 -149 259 -116T308
-20Q317 33 298 69T232 115Z" />
<glyph unicode="4" glyph-name="four" horiz-adv-x="506" d="M240 78L288 353L80 78H240ZM303 78H333Q381 78 399 94T433 154L440 174H456L426 42H296L283 -33Q269 -108 278 -128T334 -149L331 -170H123L126 -149Q173 -149 190 -128T220 -33L233 42H23L27 61L353
492H375L303 78Z" />
<glyph unicode="5" glyph-name="five" horiz-adv-x="460" d="M128 186Q146 206 177 218T238 230Q315 230 352 170T374 22Q358 -64 291 -125T148 -187Q83 -187 46 -148T15 -72Q18 -51 41 -51Q53 -51 60 -66T71 -100T97 -133T154 -149Q210 -149 250 -101T303 22Q331
189 223 189Q186 189 152 165T103 90H70L159 433H314Q372 433 393 448T433 509H449L403 371H175L128 186Z" />
<glyph unicode="6" glyph-name="six" horiz-adv-x="488" d="M153 244Q142 186 145 146T155 82T176 44T201 27T224 23Q280 23 315 66T361 172Q372 232 352 275T276 318Q236 318 201 297T153 244ZM163 299Q211 358 283 358Q358 358 401 303T432 171Q418 94 355 39T217
-17Q194 -17 173 -10T129 15T94 66T76 147T84 266Q100 355 136 433T230 566T354 620Q407 620 442 595T473 543Q468 518 443 518Q434 518 426 529T411 553T388 577T349 588Q225 588 163 299Z" />
<glyph unicode="7" glyph-name="seven" horiz-adv-x="433" d="M433 442L429 414L133 -138Q118 -166 106 -178T77 -185Q64 -181 61 -167T70 -125L377 379H228Q170 379 150 364T111 303L103 283H84L163 521H182Q173 471 189 457T273 442H433Z" />
<glyph unicode="8" glyph-name="eight" horiz-adv-x="488" d="M291 358Q329 380 357 413T393 485Q399 522 381 550T321 578Q281 578 253 550T218 489Q211 444 230 415T291 358ZM253 310Q202 280 170 244T128 146Q119 97 143 60T223 22Q278 22 316 59T363 142Q367
166 362 187T349 223T321 256T290 283T253 310ZM315 342Q376 304 407 262T428 156Q415 81 354 32T216 -17Q141 -17 97 32T65 156Q77 220 120 260T228 328Q138 397 153 478Q164 540 214 578T328 617Q391 617 428 579T454 478Q441 401 315 342Z" />
<glyph unicode="9" glyph-name="nine" horiz-adv-x="488" d="M431 168Q415 79 380 0T286 -133T162 -187Q109 -187 74 -162T43 -110Q46 -84 72 -84Q81 -84 89 -95T104 -119T127 -143T166 -154Q291 -154 353 134Q303 75 233 75Q158 75 115 130T84 263Q98 340 160
395T298 450Q321 450 342 443T387 418T422 368T440 287T431 168ZM363 189Q374 247 371 287T360 351T339 389T315 406T292 410Q236 410 201 367T154 262Q144 200 163 158T239 115Q279 115 314 136T363 189Z" />
<glyph unicode=":" glyph-name="colon" horiz-adv-x="250" d="M147 40Q144 21 127 7T90 -8Q71 -8 60 6T52 40Q56 60 72 74T108 88T139 74T147 40ZM181 230Q177 211 160 197T123 182Q104 182 93 196T86 230Q89 250 105 264T141 278T172 264T181 230Z" />
<glyph unicode=";" glyph-name="semicolon" horiz-adv-x="250" d="M181 230Q177 211 160 197T123 182Q104 182 93 196T86 230Q89 250 105 264T141 278T172 264T181 230ZM98 -8H90Q71 -8 60 6T52 40Q56 60 72 74T108 88Q129 88 142 72T150 25Q144 -11 112 -55T32
-126L23 -114Q81 -62 98 -8Z" />
<glyph unicode="&lt;" glyph-name="less" horiz-adv-x="483" d="M402 23L380 5L89 223L457 440L471 414L205 223L402 23Z" />
<glyph unicode="=" glyph-name="equal" horiz-adv-x="458" d="M396 258H104L112 303H403L396 258ZM373 133H82L90 178H382L373 133Z" />
<glyph unicode="&gt;" glyph-name="greater" horiz-adv-x="483" d="M42 32L307 223L111 423L132 440L423 223L55 5L42 32Z" />
<glyph unicode="?" glyph-name="question" horiz-adv-x="492" d="M409 486Q415 521 391 547T318 574Q280 574 248 551T211 495Q206 471 218 446L174 426Q148 458 156 500Q164 547 212 582T331 617Q394 617 437 580T469 483Q462 442 436 412T376 364T311 331T254
297T226 253Q222 230 236 217T275 203Q304 203 342 225V199Q302 173 260 173Q227 173 204 195T188 260Q195 297 228 327T299 374T369 420T409 486ZM268 40Q264 20 247 6T211 -8T181 6T173 40T193 74T228 88Q248 88 260 74T268 40Z" />
<glyph unicode="@" glyph-name="at" horiz-adv-x="708" d="M423 116L469 293Q451 318 410 318Q368 318 334 275T281 167Q264 107 274 65T326 23Q355 23 383 49T423 116ZM497 23Q538 23 587 87T645 231Q654 335 592 396T433 457Q308 457 212 365T105 148Q95 23
162 -52T346 -127Q454 -127 563 -63L573 -81Q454 -161 335 -161Q200 -161 114 -73T39 145Q52 290 164 393T422 496Q542 496 615 423T678 233Q669 138 603 63T470 -13Q443 -13 427 2T408 38Q390 16 359 0T305 -17Q244 -17 221 36T217 167Q237 243 296 296T418 350Q451
350 481 333H537L470 83Q455 23 497 23Z" />
<glyph unicode="A" glyph-name="A" horiz-adv-x="483" d="M151 208L95 97Q74 56 84 39T141 21L138 0H-47L-43 21Q-3 21 15 36T62 108L316 617H335L411 108Q420 52 432 37T484 21L481 0H268L272 21Q318 21 334 38T344 97L328 208H151ZM323 245L288 481L170 245H323Z" />
<glyph unicode="B" glyph-name="B" horiz-adv-x="482" d="M239 37Q287 37 325 75T374 168Q384 224 359 262T286 301H199L173 153Q159 78 168 58T224 37H239ZM245 563L205 338H267Q309 338 343 370T386 450T372 530T307 563H245ZM369 326Q411 307 433 264T445 168Q432
97 377 49T246 0H8L12 21Q59 21 76 42T106 138L163 463Q176 538 167 558T111 579L114 600H331Q399 600 433 557T457 450Q444 377 369 326Z" />
<glyph unicode="C" glyph-name="C" horiz-adv-x="532" d="M443 11H422Q422 58 412 68Q335 -17 257 -17Q163 -17 112 76T83 300Q105 430 189 523T368 617Q449 617 493 532Q507 543 524 589H545L506 369H485Q488 467 456 522T363 578Q313 578 269 533T198 428T159
300Q150 235 153 174T185 68T266 23Q327 23 378 78T461 231H482L443 11Z" />
<glyph unicode="D" glyph-name="D" horiz-adv-x="548" d="M8 0L12 21Q59 21 76 42T106 138L163 463Q176 538 167 558T111 579L114 600H323Q448 600 495 516T520 300Q498 168 420 84T218 0H8ZM245 563L173 153Q159 78 167 58T221 37H223Q400 37 445 300Q492 563
316 563H245Z" />
<glyph unicode="E" glyph-name="E" horiz-adv-x="448" d="M8 0L12 21Q59 21 76 42T106 138L163 463Q176 538 167 558T111 579L114 600H462L445 468H429V488Q428 532 416 547T355 563H245L205 336H242Q299 336 317 352T346 432H362L322 203H306Q317 265 305 282T235
299H198L173 153Q159 78 168 58T224 37H288Q336 37 354 53T388 113L395 133H411L381 0H8Z" />
<glyph unicode="F" glyph-name="F" horiz-adv-x="420" d="M245 563L205 336H242Q299 336 317 352T346 432H362L322 203H306Q317 265 305 282T235 299H198L170 138Q157 63 166 42T222 21L218 0H8L12 21Q59 21 76 42T106 138L163 463Q176 538 167 558T111 579L114
600H474L458 468H442V488Q441 532 429 547T368 563H245Z" />
<glyph unicode="G" glyph-name="G" horiz-adv-x="557" d="M257 -17Q163 -17 112 76T83 300Q105 430 189 523T368 617Q449 617 493 532Q507 543 524 589H545L506 369H485Q488 467 456 522T363 578Q289 578 233 492T158 300Q149 235 152 174T187 68T274 23Q332 23
372 58T423 158Q429 193 416 210T363 228L367 248H572L568 228Q521 228 505 208T474 111L461 35Q430 35 372 9T257 -17Z" />
<glyph unicode="H" glyph-name="H" horiz-adv-x="595" d="M198 300L170 138Q157 63 166 42T222 21L218 0H8L12 21Q59 21 76 42T106 138L163 463Q176 538 167 558T111 579L114 600H324L321 579Q274 579 258 559T228 463L205 337H458L481 463Q494 538 485 558T428
579L432 600H642L638 579Q591 579 575 559T545 463L488 138Q474 63 483 42T539 21L536 0H326L329 21Q376 21 393 42T423 138L452 300H198Z" />
<glyph unicode="I" glyph-name="I" horiz-adv-x="277" d="M218 0H8L12 21Q59 21 76 42T106 138L163 463Q176 538 167 558T111 579L114 600H324L321 579Q274 579 258 559T228 463L170 138Q157 63 166 42T222 21L218 0Z" />
<glyph unicode="J" glyph-name="J" horiz-adv-x="276" d="M163 463Q176 538 167 558T111 579L114 600H324L321 579Q274 579 258 559T228 463L137 -54Q122 -138 80 -180T-16 -223Q-62 -223 -86 -199T-107 -149Q-100 -123 -74 -123Q-59 -123 -53 -134T-46 -158T-36
-182T-6 -193Q22 -193 40 -164T73 -54L163 463Z" />
<glyph unicode="K" glyph-name="K" horiz-adv-x="525" d="M255 330Q275 336 292 336Q316 336 334 325T362 295T381 249T393 194T404 133L417 64Q423 23 440 23Q458 23 480 45V22Q445 -13 414 -13Q388 -13 369 7T347 57L341 125Q337 169 334 194T323 247T302 287T268
300Q222 300 188 238L170 138Q157 63 166 42T222 21L218 0H8L12 21Q59 21 76 42T106 138L163 463Q176 538 167 558T111 579L114 600H324L321 579Q274 579 258 559T228 463L199 301L286 415Q370 525 416 561T508 598Q538 598 555 578T568 534Q560 503 537 503Q518
503 513 527T488 552Q458 552 417 515T307 394L255 330Z" />
<glyph unicode="L" glyph-name="L" horiz-adv-x="440" d="M8 0L12 21Q59 21 76 42T106 138L163 463Q176 538 167 558T111 579L114 600H324L321 579Q274 579 258 559T228 463L173 153Q159 78 168 58T224 37H313Q361 37 379 53T413 113L420 133H436L406 0H8Z" />
<glyph unicode="M" glyph-name="M" horiz-adv-x="690" d="M636 0H427L430 21Q476 21 497 49T523 138L560 480L310 -17H300L226 496L138 138Q122 77 133 49T189 21L186 0H3L7 21Q50 21 67 45T101 138L183 463Q200 528 189 553T131 579L134 600H276L346 124L584
600H717L713 579Q667 579 647 553T620 463L588 138Q578 78 587 50T639 21L636 0Z" />
<glyph unicode="N" glyph-name="N" horiz-adv-x="612" d="M498 426Q517 537 546 577T621 617Q651 617 666 598T678 557Q673 528 648 528Q630 528 626 552T603 577Q578 577 563 537T535 428L456 -17H438L223 490L168 174Q148 64 119 24T43 -17Q13 -17 -2 2T-13
43Q-8 72 17 72Q29 72 34 65T39 48T44 31T63 23Q105 23 130 172L182 463Q195 538 186 558T129 579L133 600H252L448 140L498 426Z" />
<glyph unicode="O" glyph-name="O" horiz-adv-x="594" d="M597 431T574 300T461 76T268 -17T108 76T74 300Q96 430 186 523T380 617T540 524ZM497 300Q507 346 504 395T490 485T448 552T373 578Q315 578 267 533T191 428T152 300Q143 235 146 174T184 68T276 23T382
67T458 172T497 300Z" />
<glyph unicode="P" glyph-name="P" horiz-adv-x="426" d="M310 600Q386 600 424 552T449 431Q437 359 382 311T251 263H193L170 138Q157 63 166 42T222 21L218 0H8L12 21Q59 21 76 42T106 138L163 463Q176 538 167 558T111 579L114 600H310ZM243 299Q291 299 330
337T378 431Q388 486 363 524T290 563H245L198 299H243Z" />
<glyph unicode="Q" glyph-name="Q" horiz-adv-x="594" d="M290 -16Q213 -26 145 -73Q209 -57 249 -62T326 -86T388 -126T447 -163T518 -180Q632 -180 702 -77L715 -83Q685 -144 626 -192T488 -240Q447 -240 405 -217T334 -167T269 -116T201 -93T148 -102T116 -123T97
-145T75 -157Q61 -159 53 -150T48 -126Q52 -102 101 -65T216 -9Q134 17 95 102T74 300Q97 431 187 524T380 617T540 524T574 300Q552 174 470 85T290 -16ZM498 300Q508 346 505 395T491 485T449 552T373 578Q315 578 267 533T191 428T151 300Q140 254 143 205T159
115T201 49T276 23Q334 23 383 67T459 172T498 300Z" />
<glyph unicode="R" glyph-name="R" horiz-adv-x="472" d="M243 299Q291 299 330 337T378 431Q388 486 363 524T290 563H245L198 299H243ZM227 263H193L170 138Q157 63 166 42T222 21L218 0H8L12 21Q59 21 76 42T106 138L163 463Q176 538 167 558T111 579L114 600H310Q386
600 424 552T449 431Q439 372 399 327T302 268Q345 237 358 165L375 64Q382 23 398 23Q416 23 438 45V22Q425 8 402 -2T362 -13Q334 -13 317 4T298 57L293 158Q284 263 227 263Z" />
<glyph unicode="S" glyph-name="S" horiz-adv-x="417" d="M79 35Q53 12 43 -17H23L62 203H83Q74 125 104 74T207 23Q242 23 275 50T317 127Q323 165 305 196T236 267L179 309Q102 368 119 467Q130 530 175 573T278 617Q332 617 369 576Q390 595 400 622H420L381
402H360Q380 577 276 577Q241 577 212 551T175 488Q164 421 238 368L300 324Q393 256 374 157Q360 78 308 31T191 -17Q170 -17 151 -11T119 3T95 20T79 35Z" />
<glyph unicode="T" glyph-name="T" horiz-adv-x="453" d="M332 562L257 138Q243 63 252 42T308 21L305 0H95L98 21Q145 21 162 42T193 138L268 562H209Q145 562 122 547T80 486H58L98 600H512V486H493Q489 531 472 546T390 562H332Z" />
<glyph unicode="U" glyph-name="U" horiz-adv-x="583" d="M628 579Q581 579 564 559T534 463L492 223Q472 110 407 47T263 -17T143 46T121 223L163 463Q177 538 168 558T112 579L115 600H324L321 579Q274 579 258 559T228 463L184 218Q168 124 196 76T286 28Q344
28 388 76T449 218L493 463Q506 538 497 558T441 579L444 600H631L628 579Z" />
<glyph unicode="V" glyph-name="V" horiz-adv-x="483" d="M583 579Q542 579 524 564T478 492L223 -17H203L128 492Q120 548 108 563T55 579L58 600H271L268 579Q221 579 205 562T194 503L252 119L443 503Q464 544 455 561T398 579L402 600H586L583 579Z" />
<glyph unicode="W" glyph-name="W" horiz-adv-x="704" d="M455 600L501 138L665 503Q685 546 676 562T620 579L623 600H808L804 579Q763 579 744 563T699 492L469 -17H450L405 442L198 -17H179L129 492Q124 547 111 563T56 579L59 600H273L269 579Q223 579 208
562T196 503L232 140L438 600H455Z" />
<glyph unicode="X" glyph-name="X" horiz-adv-x="482" d="M253 260L128 97Q102 68 106 45T154 21L151 0H-33L-29 21Q7 21 35 44T95 108L240 298L175 492Q160 535 140 557T83 579L86 600H298L295 579Q251 579 239 560T241 503L289 363L397 503Q456 579 371 579L374
600H558L554 579Q539 579 526 576T503 568T484 555T466 538T448 517T430 492L303 324L375 108Q392 62 411 42T468 21L464 0H251L254 21Q299 21 311 40T308 97L253 260Z" />
<glyph unicode="Y" glyph-name="Y" horiz-adv-x="467" d="M267 192L257 138Q243 63 252 42T308 21L305 0H93L97 21Q144 21 161 42T191 138L200 188Q226 329 219 415T190 538T137 575Q114 575 88 552V575Q122 610 165 610Q224 610 250 543T271 315Q322 457 372
533T481 609Q511 609 526 590T538 549Q532 521 508 521Q496 521 490 528T483 545T476 561T458 569Q415 569 351 436T267 192Z" />
<glyph unicode="Z" glyph-name="Z" horiz-adv-x="432" d="M577 -35Q491 -162 403 -162Q369 -162 341 -137T295 -76T259 -5T220 56T173 81Q140 81 116 67T81 36T58 2T36 -16Q24 -18 18 -7T14 23Q24 77 168 244T414 500Q378 487 350 487Q314 487 269 518T191 549Q177
549 161 540T132 518T106 493L97 498Q119 545 150 577T215 609T281 588T340 545T390 524Q417 524 435 545T465 587T484 609Q505 609 499 580Q493 547 421 471Q338 388 256 287T131 113Q152 118 178 118Q222 118 254 97T304 45T338 -17T378 -69T435 -91Q488 -91
564 -24L577 -35Z" />
<glyph unicode="[" glyph-name="bracketleft" horiz-adv-x="358" d="M278 -88H76L211 678H413L408 646H271L147 -56H284L278 -88Z" />
<glyph unicode="\" glyph-name="backslash" horiz-adv-x="348" d="M358 0L318 -18L44 600L83 618L358 0Z" />
<glyph unicode="]" glyph-name="bracketright" horiz-adv-x="358" d="M201 -88H-2L4 -56H142L266 646H128L133 678H336L201 -88Z" />
<glyph unicode="^" glyph-name="asciicircum" horiz-adv-x="485" d="M326 617L478 338L457 323L307 505L91 323L76 338L326 617Z" />
<glyph unicode="_" glyph-name="underscore" horiz-adv-x="358" d="M327 -44H-33L-26 0H334L327 -44Z" />
<glyph unicode="`" glyph-name="grave" horiz-adv-x="404" d="M247 489L241 483L113 541Q92 553 96 571Q98 581 107 590T129 600Q148 600 169 577L247 489Z" />
<glyph unicode="a" glyph-name="a" horiz-adv-x="380" d="M249 116L280 293Q255 318 218 318Q176 318 145 275T103 167Q91 104 105 64T160 23Q189 23 215 49T249 116ZM237 33Q218 11 192 -3T142 -17Q81 -17 53 36T38 167Q52 243 106 296T223 350Q257 350 288 333H343L296
64Q289 23 307 23Q322 23 347 45V22Q312 -13 281 -13Q240 -13 237 33Z" />
<glyph unicode="b" glyph-name="b" horiz-adv-x="368" d="M263 103T274 167T272 270T218 310Q189 310 162 284T128 218L111 116Q103 70 119 45T163 20Q205 20 234 61ZM144 305Q189 350 235 350Q297 350 325 298T338 167Q325 91 271 37T153 -17Q113 -17 88 6T56
58T54 113L114 454Q127 529 121 550T76 571L79 592L198 617L144 305Z" />
<glyph unicode="c" glyph-name="c" horiz-adv-x="292" d="M263 49Q205 -17 138 -17Q78 -17 51 32T37 158Q52 242 103 296T203 350Q247 350 266 329T282 284Q276 251 249 251Q235 251 229 261T223 284T217 307T198 318Q170 318 139 276T95 158Q84 96 102 60T165
23Q208 23 253 69L263 49Z" />
<glyph unicode="d" glyph-name="d" horiz-adv-x="380" d="M249 116L280 293Q255 318 218 318Q176 318 145 275T103 167Q91 104 105 64T160 23Q189 23 215 49T249 116ZM308 454Q321 529 315 550T270 571L273 592L393 617L296 64Q289 23 307 23Q322 23 347 45V22Q312
-13 281 -13Q240 -13 237 33Q218 11 192 -3T142 -17Q81 -17 53 36T38 167Q52 243 106 296T223 350Q257 350 288 333L308 454Z" />
<glyph unicode="e" glyph-name="e" horiz-adv-x="313" d="M94 150Q155 165 190 197T233 263Q236 284 229 297T203 310Q168 310 139 271T97 166Q96 160 94 150ZM92 123Q91 76 111 50T171 23Q214 23 262 69L271 49Q245 20 211 2T145 -17Q84 -17 55 36T38 167Q53
244 104 297T210 350Q249 350 269 325T283 264Q275 220 227 181T92 123Z" />
<glyph unicode="f" glyph-name="f" horiz-adv-x="224" d="M108 298H43L50 333H115L132 432Q147 516 194 566T292 617Q335 617 358 593T377 543Q372 518 346 518Q332 518 326 529T320 553T311 577T283 588Q256 588 229 549T188 432L171 333H251L244 298H164L93
-107Q65 -267 -38 -267Q-79 -267 -100 -244T-116 -196Q-111 -168 -83 -168Q-69 -168 -64 -179T-59 -203T-53 -227T-28 -238Q-5 -238 9 -209T37 -107L108 298Z" />
<glyph unicode="g" glyph-name="g" horiz-adv-x="313" d="M212 214Q221 260 211 289T173 318Q144 318 125 290T96 214Q88 168 97 139T136 110Q164 110 184 139T212 214ZM239 323Q273 350 305 350Q329 350 340 336T349 305Q347 294 339 285T319 275Q306 275 301
281T295 295T291 308T274 315Q264 315 252 307Q276 268 266 214T217 119T131 78Q103 78 75 64T42 30Q39 11 64 2T121 -10Q209 -18 244 -54T271 -138Q261 -196 207 -231T81 -266Q6 -266 -35 -236T-68 -165Q-59 -117 9 -85L25 -96Q-16 -132 -21 -161Q-27 -194 7 -213T87
-233Q133 -233 172 -212T218 -156Q224 -120 196 -102T104 -77Q42 -70 10 -48T-15 15Q-10 42 16 64T78 96Q28 134 42 214Q52 270 92 310T178 350Q215 350 239 323Z" />
<glyph unicode="h" glyph-name="h" horiz-adv-x="385" d="M114 454Q127 529 121 550T76 571L79 592L198 617L138 268Q187 350 253 350Q302 350 319 309T324 201L301 64Q294 23 312 23Q327 23 352 45V22Q317 -13 286 -13Q261 -13 250 6T243 57L268 196Q278 245
269 274T225 303Q197 303 163 262T117 149L90 0H34L114 454Z" />
<glyph unicode="i" glyph-name="i" horiz-adv-x="206" d="M118 64Q109 23 128 23Q146 23 168 45V22Q133 -13 103 -13Q77 -13 66 6T60 57L98 269Q105 311 87 311Q79 311 66 303T47 288V312Q79 346 112 346Q138 346 149 327T155 277L118 64ZM200 493Q198 478 186
468T158 458Q144 458 136 468T129 493Q132 507 144 517T171 528T193 518T200 493Z" />
<glyph unicode="j" glyph-name="j" horiz-adv-x="195" d="M88 -98Q74 -183 36 -225T-52 -267Q-95 -267 -118 -243T-137 -193Q-132 -168 -106 -168Q-92 -168 -86 -179T-80 -203T-71 -227T-43 -238Q-17 -238 1 -208T33 -98L98 269Q105 311 87 311Q79 311 66 303T47
288V312Q79 346 112 346Q138 346 149 327T155 277L88 -98ZM200 493Q198 478 186 468T158 458Q144 458 136 468T129 493Q132 507 144 517T171 528T193 518T200 493Z" />
<glyph unicode="k" glyph-name="k" horiz-adv-x="352" d="M121 174L90 0H34L114 454Q127 529 121 550T76 571L79 592L198 617L128 215Q181 285 214 315T286 346Q317 346 332 327T343 285Q338 258 313 258Q301 258 295 265T289 282T282 298T263 306Q244 306 220
287T153 216Q169 220 176 220Q208 220 221 208T239 161L255 64Q260 23 278 23T318 45V22Q283 -13 251 -13Q198 -13 195 57L191 153Q190 176 185 185T165 195Q146 195 121 174Z" />
<glyph unicode="l" glyph-name="l" horiz-adv-x="202" d="M114 454Q127 529 121 550T76 571L79 592L198 617L102 64Q95 23 113 23Q128 23 153 45V22Q118 -13 87 -13Q62 -13 51 6T44 57L114 454Z" />
<glyph unicode="m" glyph-name="m" horiz-adv-x="577" d="M335 258Q354 299 387 324T453 350Q542 350 516 201L493 64Q484 23 503 23Q521 23 543 45V22Q508 -13 478 -13Q452 -13 441 6T435 57L459 196Q471 252 464 277T425 303Q396 303 364 263T320 149L293 0H238L272
196Q283 252 276 277T238 303Q209 303 177 263T133 149L106 0H50L98 269Q105 311 87 311Q79 311 66 303T47 288V312Q79 346 112 346Q138 346 149 327T155 277L153 268Q172 304 203 327T266 350Q337 350 335 258Z" />
<glyph unicode="n" glyph-name="n" horiz-adv-x="401" d="M106 0H50L98 269Q105 311 87 311Q79 311 66 303T47 288V312Q79 346 112 346Q138 346 149 327T155 277L153 268Q176 306 206 328T269 350Q318 350 335 309T340 201L317 64Q310 23 328 23Q343 23 368 45V22Q333
-13 302 -13Q277 -13 266 6T259 57L283 196Q303 303 241 303Q212 303 179 262T133 149L106 0Z" />
<glyph unicode="o" glyph-name="o" horiz-adv-x="379" d="M341 167Q327 91 274 37T158 -17Q95 -17 60 37T38 167Q52 243 106 296T223 350Q285 350 319 297T341 167ZM265 100T277 167T275 276T218 319Q175 319 145 277T103 167T105 57T163 14T235 57Z" />
<glyph unicode="p" glyph-name="p" horiz-adv-x="385" d="M280 103T291 167T287 274T229 318Q192 318 158 293L128 116Q121 77 137 50T183 23Q224 23 252 63ZM130 447L138 493H193L166 333Q201 350 235 350Q298 350 333 297T355 167Q342 89 295 36T187 -17Q140
-17 112 29L87 -113Q74 -188 84 -208T146 -229L142 -250H-73L-68 -229Q-18 -229 0 -209T31 -113L95 248Q63 183 20 133L3 145Q39 188 75 268T130 447Z" />
<glyph unicode="q" glyph-name="q" horiz-adv-x="368" d="M249 116L280 293Q255 318 218 318Q176 318 145 275T103 167Q91 104 105 64T160 23Q189 23 215 49T249 116ZM264 -113Q252 -188 262 -208T323 -229L319 -250H105L109 -229Q160 -229 177 -209T208 -113L233
29Q189 -17 142 -17Q81 -17 53 36T38 167Q52 243 106 296T223 350Q257 350 288 333H343L264 -113Z" />
<glyph unicode="r" glyph-name="r" horiz-adv-x="285" d="M146 252Q164 299 191 324T248 350Q279 350 290 330T298 287Q296 275 286 264T258 253Q245 253 237 262T231 285Q234 306 222 306Q198 306 168 251T120 97L103 0H50L98 269Q105 311 87 311Q79 311 66 303T47
288V312Q79 346 112 346Q163 346 151 277L146 252Z" />
<glyph unicode="s" glyph-name="s" horiz-adv-x="242" d="M205 86Q196 38 163 11T90 -17Q47 -17 24 5T4 51Q9 74 32 74Q44 74 49 65T55 45T67 24T102 15Q123 15 138 30T156 63Q159 81 150 101T127 133L91 168Q49 209 58 259Q64 296 92 323T167 350Q204 350 221
331T235 291Q232 271 213 271Q202 271 197 279T191 297T182 315T156 323Q139 323 125 311T106 279Q100 249 136 213L172 179Q215 138 205 86Z" />
<glyph unicode="t" glyph-name="t" horiz-adv-x="228" d="M149 298L114 98Q102 26 136 26Q163 26 199 71L200 43Q180 16 155 1T111 -14Q39 -14 58 98L93 298H28L35 333H100L128 493H183L156 333H236L229 298H149Z" />
<glyph unicode="u" glyph-name="u" horiz-adv-x="401" d="M368 22Q333 -13 302 -13Q277 -13 266 6T259 57L261 65Q239 28 208 6T144 -17Q96 -17 79 24T73 133L98 269Q105 311 87 311Q79 311 66 303T47 288V312Q79 346 112 346Q138 346 149 327T155 277L130 138Q110
31 173 31Q202 31 235 72T282 184L308 333H364L317 64Q310 23 328 23Q343 23 368 45V22Z" />
<glyph unicode="v" glyph-name="v" horiz-adv-x="342" d="M165 350H182Q177 321 153 248T119 116Q111 69 124 45T163 20Q198 20 232 61T278 167Q287 232 280 257T262 301T253 331Q257 350 278 350Q301 350 312 310T309 167Q296 91 251 37T153 -17Q93 -17 73 18T62
108Q68 144 99 209T134 291Q120 298 104 304T70 311Q53 311 30 288V312Q62 346 95 346Q107 346 121 343T144 340T165 350Z" />
<glyph unicode="w" glyph-name="w" horiz-adv-x="508" d="M272 118Q301 174 311 233Q324 309 306 309Q299 309 291 290T277 238Q265 174 272 118ZM278 84Q299 20 346 20Q377 20 405 58T446 167Q455 233 448 257T429 299T420 332Q424 351 445 351Q467 351 478 309T476
167Q462 84 422 34T337 -17Q276 -17 244 39Q193 -17 145 -17T75 16T62 108Q68 144 99 209T134 291Q124 297 106 304T70 311Q53 311 30 288V312Q62 346 95 346Q107 346 121 343T143 341T164 350H182Q178 327 153 248T119 116Q111 70 124 45T163 20Q200 20 234 61Q211
125 228 223Q239 280 262 315T308 350Q329 350 338 319T338 233Q322 150 278 84Z" />
<glyph unicode="x" glyph-name="x" horiz-adv-x="299" d="M128 148L103 273Q93 315 75 315T35 293V316Q67 350 100 350Q125 350 138 334T159 281L171 230Q230 350 281 350Q305 350 314 335T319 300Q318 292 313 285T303 277Q291 277 289 284T288 299T288 314T272
321Q247 321 200 227L179 186L206 60Q215 18 233 18Q241 18 254 26T273 41V18Q240 -17 208 -17Q182 -17 169 -2T148 53L138 103Q110 48 84 16T27 -17Q3 -17 -6 -2T-12 32Q-10 41 -5 49T6 57Q18 57 20 50T21 35T21 20T37 13Q61 13 108 107L128 148Z" />
<glyph unicode="y" glyph-name="y" horiz-adv-x="309" d="M151 9Q224 118 238 203Q245 242 241 266T229 302T213 322T207 338Q209 357 232 357Q256 357 271 322T274 219Q254 102 174 -12T-7 -196T-188 -266Q-229 -266 -248 -250T-264 -213Q-262 -203 -252 -192T-233
-180Q-227 -180 -222 -186T-212 -201T-194 -216T-161 -223Q-108 -223 -41 -181T88 -69Q108 65 104 149T83 273T43 312Q33 312 18 304T-3 288V312Q29 346 70 346Q127 346 149 254T151 9Z" />
<glyph unicode="z" glyph-name="z" horiz-adv-x="282" d="M72 67Q86 69 97 69Q127 69 148 53T181 16T210 -21T251 -38Q293 -38 323 -11L334 -22Q281 -104 228 -104Q204 -104 184 -82T152 -32T123 18T88 41Q64 41 50 28T26 -1T10 -17Q0 -19 -6 -13T-9 11Q-4 40
82 134T223 275Q200 270 188 270Q170 270 143 282T96 294Q71 294 50 272L39 279Q53 308 72 329T113 350Q137 350 169 324T218 298T245 311T264 337T279 350Q293 350 290 333Q284 305 243 263Q107 127 72 67Z" />
<glyph unicode="{" glyph-name="braceleft" horiz-adv-x="358" d="M70 304Q101 314 114 320T146 344T176 394T197 478Q206 528 228 565T279 624T343 666T414 703L427 682Q373 649 349 631T299 574T264 480Q254 426 243 393T215 340T180 312T132 296Q160 289 174
281T199 253T209 200T199 112Q195 88 195 67T196 31T206 1T220 -24T240 -47T263 -68T291 -90L271 -111Q263 -106 245 -95T219 -79T195 -62T172 -43T155 -22T140 4T132 34T128 71T133 114Q140 156 140 185T138 231T121 259T99 275T68 288L70 304Z" />
<glyph unicode="|" glyph-name="bar" horiz-adv-x="274" d="M211 686H255L118 -96H73L211 686Z" />
<glyph unicode="}" glyph-name="braceright" horiz-adv-x="358" d="M343 288Q318 280 308 276T280 260T253 231T234 186T216 114Q207 64 185 27T134 -32T70 -74T-1 -111L-14 -90Q27 -65 46 -52T90 -14T128 40T149 112Q161 183 179 221T219 273T282 296Q253 303
238 311T213 339T203 392T214 480Q218 504 218 525T217 561T207 591T193 616T173 639T150 660T122 682L143 703Q150 698 168 687T195 671T218 654T241 635T258 613T273 587T281 558T285 521T280 478Q273 436 273 407T276 361T292 333T314 316T345 304L343 288Z"
/>
<glyph unicode="~" glyph-name="asciitilde" horiz-adv-x="423" d="M300 203Q339 203 362 259H381Q371 204 343 173T278 141Q256 141 207 174T142 207T108 190T81 151H63Q71 202 99 235T160 268Q185 268 232 236T300 203Z" />
</font>
</defs>
</svg>
